#!OML:ASF F:\VICON\USERDATA\INSTALL\rory3\rory3.ASF
:FULLY-SPECIFIED
:DEGREES
29
root -0.5833639081687181 17.675374662479346 -5.8173736891144845 -0.0742618590478803 8.331455328459562 -2.062598109479572
lfemur -24.092315390509615 -0.17879452089437115 -21.081751609495438
ltibia 45.88812329583247
lfoot -2.6079189313086872 -15.747543875114353
ltoes 12.429966987340114
rfemur -1.959872614186045 -1.8189895676314811 28.540140658486692
rtibia 89.52601072974656
rfoot 16.473887236763748 -8.42911968592051
rtoes 10.896627825900348
lowerback 16.60071229981934 1.1921465042869395 1.9590687491308703
upperback -0.04155831537934995 2.0023943563046496 0.8833261129365357
thorax -7.814859753650123 0.9232768087437944 -0.618111224490845
lowerneck -17.388919789307348 -5.2242673367159895 -2.65478894291011
upperneck 15.505633068769047 -6.930577701188673 3.9643017301304786
head 7.869033984070154 -3.1047505620004654 1.1800403473621635
lclavicle -6.554624727991361e-16 -4.866142324970388e-15
lhumerus -58.71348856661063 -14.093855842174598 100.18977565062376
lradius 114.7697362583241
lwrist 17.524172993038523
lhand -33.67266461609074 2.152698171949101
lfingers 7.125019999999998
lthumb -6.500397798959043 32.186534224071565
rclavicle -6.377922629174698e-16 -4.8554233119939e-15
rhumerus -52.60635260189994 14.60993967336194 -101.24025803633678
rradius 121.01856752365093
rwrist -12.192095949317995
rhand -19.8936586408685 34.20264887721113
rfingers 7.125019999999998
rthumb 6.564343022224009 6.891113267902287
30
root -0.5897545089352303 17.41613534483939 -4.828094947898508 0.6273565171909858 8.698932391299524 -1.4972212991670546
lfemur -23.540426771086967 -0.6003468212106844 -21.994621490819885
ltibia 50.32403002879157
lfoot -8.65675705565956 -12.345032844030346
ltoes 12.334159686407885
rfemur -7.519724415547795 -4.698332589319248 25.918780356581237
rtibia 97.34248525378933
rfoot 15.218943487670579 -9.113727271161617
rtoes 11.934408319624257
lowerback 17.03497928125131 0.9686649761814089 1.1923783659751714
upperback 0.02188746589077528 1.5546860272581342 0.5020077328760224
thorax -8.131041008585136 0.7452688743205252 -0.31277260338494006
lowerneck -17.97420224662761 -5.187464094437872 -2.577512083488798
upperneck 15.573273723955001 -6.878924500619719 4.183975795099952
head 7.921835479979318 -3.032323259276609 1.221843240583964
lclavicle -6.569325389163875e-16 -4.867167806785104e-15
lhumerus -54.88182475706675 -15.78004538769791 100.099266826251
lradius 113.89173407996088
lwrist 17.929040385948568
lhand -33.30509871957131 1.621862756128696
lfingers 7.125019999999998
lthumb -6.169536893159549 31.901643641520476
rclavicle -6.423961828238316e-16 -4.857613718630878e-15
rhumerus -52.44102068840414 13.609236059876864 -100.98683836770442
rradius 118.12179202329725
rwrist -11.841480509074415
rhand -19.279996208770434 34.04255044556298
rfingers 7.125019999999998
rthumb 6.34285217463319 6.167924405613123
31
root -0.6029927955650329 17.17710550092754 -3.9387484472889245 1.2617981747023452 8.45132876689815 0.41767664011129324
lfemur -22.07328681797106 -1.3894025436527366 -24.74926199168287
ltibia 52.64869050878022
lfoot -13.86945474289192 -7.984794410907148
ltoes 7.547503208308493
rfemur -13.630663709076483 -6.830466335047648 21.813988565276535
rtibia 104.68145805963499
rfoot 14.18918167004112 -8.891364608752438
rtoes 15.042882310936525
lowerback 17.80243707581765 0.9533895659347633 -0.8431144118031071
upperback 0.15403487123490434 1.2451761672863786 -0.309080069621229
thorax -8.541458057671752 0.6474346782946008 0.21907311701264798
lowerneck -18.524369063314726 -5.102118452990759 -2.468992342510106
upperneck 15.446450033222593 -6.80606021259138 4.418417575258979
head 7.954304973224285 -2.9691183161982018 1.2543494762971186
lclavicle -6.52525346772771e-16 -4.864026728868187e-15
lhumerus -50.6003269123484 -17.216810768211978 99.79853914947724
lradius 112.74804257391841
lwrist 20.55255558203578
lhand -33.965663735660314 2.614607116747528
lfingers 7.125019999999998
lthumb -6.17459663510745 32.683574556290814
rclavicle -6.481959037881197e-16 -4.8627679709850785e-15
rhumerus -52.21994536873308 12.519516001600978 -100.67206865516506
rradius 116.23253671933985
rwrist -10.926181701228494
rhand -19.8242252776702 35.370929692411174
rfingers 7.125019999999998
rthumb 6.105278875754433 5.724647886709233
32
root -0.6123984190319676 17.06077996904733 -3.1747330482923317 2.0676314070883075 7.505477661229637 2.3759069994408017
lfemur -19.858628870004363 -2.2379982144441297 -27.544423161420568
ltibia 53.083185894944066
lfoot -17.097401338592398 -3.980045065201252
ltoes 2.9825957630322932
rfemur -20.016084295597214 -7.861051418754894 18.33782811502688
rtibia 110.01951010222595
rfoot 12.825895587573859 -8.717135413601493
rtoes 16.65200188212205
lowerback 18.029391229605743 1.0402278751586198 -2.88804876492362
upperback 0.16738470622866197 0.9986284362834424 -0.9464901561103971
thorax -8.639289818949344 0.5560730160493823 0.6938507141473355
lowerneck -18.985742989970575 -4.884993896493361 -2.3795052793777707
upperneck 15.000588281726271 -6.56520871794685 4.566713046494686
head 7.904651351726739 -2.8578172088863107 1.2904694618276276
lclavicle -6.545792083051201e-16 -4.865539164001898e-15
lhumerus -46.31469868960549 -18.484452899282882 99.29710610452557
lradius 111.84856046513352
lwrist 26.096664862716565
lhand -34.969067938405146 2.8862732161902924
lfingers 7.125019999999998
lthumb -7.085362595967762 32.682714741698746
rclavicle -6.477419382205877e-16 -4.8626739907923215e-15
rhumerus -51.952392394463004 11.456154575583975 -100.22965031681146
rradius 114.8718371409688
rwrist -10.381907345036876
rhand -19.313595984886756 33.965059086488104
rfingers 7.125019999999998
rthumb 6.496347282648614 5.366316354528592
